<svg xmlns="http://www.w3.org/2000/svg" version="1.1" viewBox="-5.0 -10.0 110.0 135.0">
 <path d="m11.883 59.391c0 0.62109-0.50391 1.125-1.125 1.125-0.62109 0-1.125-0.50391-1.125-1.125v-12.609l-6.6719-6.6719c-0.22266-0.22266-0.32813-0.50391-0.32813-0.78906v-31.785c0-0.62109 0.50391-1.125 1.125-1.125 0.62109 0 1.125 0.50391 1.125 1.125v31.305l6.6641 6.6641c0.21094 0.19922 0.33594 0.48438 0.33594 0.80078zm6.1055-22.887c0.75781 0 1.4414 0.30469 1.9492 0.80078 0.50391 0.49609 0.80078 1.1914 0.80078 1.9492 0 0.34766-0.0625 0.67188-0.17969 0.98047l4.3906 4.3906c0.21094 0.19922 0.33594 0.48438 0.33594 0.80078v8.4844c0 0.62109-0.50391 1.125-1.125 1.125s-1.125-0.50391-1.125-1.125v-8.0195l-4.0625-4.0625c-0.30469 0.11719-0.63281 0.17969-0.98047 0.17969-0.75781 0-1.4414-0.30469-1.9492-0.80078-0.49609-0.49609-0.80078-1.1914-0.80078-1.9492 0-0.75781 0.30469-1.4414 0.80078-1.9492 0.49609-0.49609 1.1797-0.80078 1.9492-0.80078zm17.992-26.652c-0.75781 0-1.4414 0.30469-1.9492 0.80078-0.49609 0.49609-0.80078 1.1914-0.80078 1.9492 0 0.34766 0.0625 0.67188 0.17969 0.98047l-4.4844 4.4844c-0.21094 0.19922-0.33594 0.48438-0.33594 0.80078v10.336l-10.086-5.1055v-6.5273c0.30469-0.13672 0.58984-0.32812 0.82031-0.57031 0.49609-0.49609 0.80078-1.1797 0.80078-1.9492s-0.30469-1.4414-0.80078-1.9492c-0.49609-0.49609-1.1797-0.80078-1.9492-0.80078s-1.4414 0.30469-1.9492 0.80078c-0.49609 0.49609-0.80078 1.1797-0.80078 1.9492s0.30469 1.4414 0.80078 1.9492c0.23047 0.23047 0.51562 0.42969 0.82031 0.57031v7.2227c0 0.46484 0.28516 0.86328 0.69531 1.043l11.641 5.8945v19.949c0 0.62109 0.50391 1.125 1.125 1.125 0.62109 0 1.125-0.50391 1.125-1.125v-11.895h4.4727c0.13672 0.30469 0.32812 0.58984 0.57031 0.82031 0.49609 0.49609 1.1914 0.80078 1.9492 0.80078 0.75781 0 1.4414-0.30469 1.9492-0.80078 0.49609-0.49609 0.80078-1.1797 0.80078-1.9492s-0.30469-1.4414-0.80078-1.9492c-0.49609-0.49609-1.1914-0.80078-1.9492-0.80078-0.75781 0-1.4414 0.30469-1.9492 0.80078-0.23047 0.23047-0.42969 0.51562-0.57031 0.82031h-4.4727v-18.191l4.168-4.168c0.30469 0.11719 0.63281 0.17969 0.98047 0.17969 0.75781 0 1.4414-0.30469 1.9492-0.80078 0.49609-0.49609 0.80078-1.1797 0.80078-1.9492 0-0.76953-0.30469-1.4414-0.80078-1.9492-0.49609-0.49609-1.1797-0.80078-1.9492-0.80078zm54.387 49.539c0 0.62109-0.50391 1.125-1.125 1.125-0.62109 0-1.125-0.50391-1.125-1.125v-13.074c0-0.31641 0.125-0.60156 0.33594-0.80078l6.6641-6.6641v-31.316c0-0.62109 0.50391-1.125 1.125-1.125 0.62109 0 1.125 0.50391 1.125 1.125v31.77c0 0.28516-0.10547 0.57812-0.32813 0.78906l-6.6719 6.6719zm-10.305-22.086c0.49609-0.49609 1.1797-0.80078 1.9492-0.80078s1.4414 0.30469 1.9492 0.80078c0.49609 0.49609 0.80078 1.1914 0.80078 1.9492 0 0.75781-0.30469 1.4414-0.80078 1.9492-0.49609 0.49609-1.1914 0.80078-1.9492 0.80078-0.46484 0-0.89453-0.11719-1.2734-0.31641l-3.4414 1.5352v2.4531c0 0.62109-0.50391 1.125-1.125 1.125s-1.125-0.50391-1.125-1.125v-3.1797c0-0.49609 0.31641-0.90625 0.75781-1.0625l3.5352-1.5781c-0.042969-0.19922-0.0625-0.39844-0.0625-0.60938 0-0.75781 0.30469-1.4414 0.80078-1.9492zm-17.988-26.641c-0.49609 0.49609-0.80078 1.1914-0.80078 1.9492 0 0.75781 0.30469 1.4414 0.80078 1.9492 0.49609 0.50391 1.1797 0.80078 1.9492 0.80078 0.34766 0 0.67187-0.0625 0.98047-0.17969l4.168 4.168v18.191h-4.4727c-0.13672-0.30469-0.32812-0.58984-0.57031-0.82031-0.49609-0.49609-1.1797-0.80078-1.9492-0.80078-0.76953 0-1.4414 0.30469-1.9492 0.80078-0.50391 0.49609-0.80078 1.1914-0.80078 1.9492s0.30469 1.4414 0.80078 1.9492c0.49609 0.49609 1.1797 0.80078 1.9492 0.80078 0.76953 0 1.4414-0.30469 1.9492-0.80078 0.23047-0.23047 0.42969-0.51562 0.57031-0.82031h4.4727v2.7891c0 0.62109 0.50391 1.125 1.125 1.125s1.125-0.50391 1.125-1.125v-10.844l11.641-5.8945c0.41016-0.16797 0.69531-0.57031 0.69531-1.043v-7.2227c0.30469-0.13672 0.58984-0.32813 0.82031-0.57031 0.49609-0.49609 0.80078-1.1797 0.80078-1.9492 0-0.76953-0.30469-1.4414-0.80078-1.9492-0.49609-0.49609-1.1797-0.80078-1.9492-0.80078-0.76953 0-1.4414 0.30469-1.9492 0.80078-0.49609 0.49609-0.80078 1.1797-0.80078 1.9492 0 0.76953 0.30469 1.4414 0.80078 1.9492 0.23047 0.23047 0.51562 0.42969 0.82031 0.57031v6.5273l-10.086 5.1055v-10.336c0-0.31641-0.125-0.60156-0.33594-0.80078l-4.4844-4.4844c0.11719-0.30469 0.17969-0.63281 0.17969-0.98047 0-0.75781-0.30469-1.4414-0.80078-1.9492-0.49609-0.49609-1.1797-0.80078-1.9492-0.80078-0.76953 0-1.4414 0.30469-1.9492 0.80078zm5.082 53.379h-23.441c-0.875 0-1.6641 0.35938-2.2422 0.9375s-0.9375 1.3672-0.9375 2.2422 0.35938 1.6641 0.9375 2.2422 1.3672 0.9375 2.2422 0.9375h23.441c1.7461 0 3.1797-1.4297 3.1797-3.1797 0-0.875-0.35938-1.6641-0.9375-2.2422-0.57813-0.57812-1.3672-0.9375-2.2422-0.9375zm0 16.641h-23.441c-0.875 0-1.6641 0.35938-2.2422 0.9375s-0.9375 1.3672-0.9375 2.2422 0.35938 1.6641 0.9375 2.2422 1.3672 0.9375 2.2422 0.9375h23.441c1.7461 0 3.1797-1.4297 3.1797-3.1797 0-0.875-0.35938-1.6641-0.9375-2.2422-0.57813-0.57812-1.3672-0.9375-2.2422-0.9375zm-1.5039-2.2422v-5.8008h-20.43v5.8008zm2.2422-5.8516v5.9062c1.1992 0.16797 2.2734 0.72656 3.0859 1.5352 0.98047 0.98047 1.5898 2.3359 1.5898 3.832 0 2.9805-2.4414 5.4219-5.4219 5.4219h-23.441c-1.4961 0-2.8516-0.60938-3.832-1.5898-0.98047-0.98047-1.5898-2.3359-1.5898-3.832 0-1.4961 0.60938-2.8516 1.5898-3.832 0.82031-0.82031 1.8945-1.3789 3.0859-1.5352v-5.8945c-1.1992-0.16797-2.2734-0.72656-3.0859-1.5352-0.98047-0.98047-1.5898-2.3359-1.5898-3.832s0.60938-2.8516 1.5898-3.832c0.19922-0.19922 0.42188-0.39062 0.65234-0.55859-0.90625-1.043-2-1.9141-3.2227-2.5703-1.5352-0.80859-3.293-1.2734-5.168-1.2734-2.4414 0-4.6953 0.78906-6.5273 2.1172-1.875 1.3672-3.3164 3.3164-4.043 5.5703-0.14844 0.45312-0.57031 0.77734-1.0625 0.77734-4.4727 0.019531-8.5273 1.8516-11.453 4.7891s-4.7383 7-4.7383 11.484c0 1.9141 0.32812 3.7461 0.9375 5.4531 0.57031 1.6016 1.3789 3.0859 2.3906 4.3984h83.137c1.4961-1.5039 2.707-3.2852 3.5469-5.2539 0.875-2.0312 1.3477-4.2734 1.3477-6.6328 0-2.7383-0.58984-5.1992-1.6094-7.3477-1.4219-2.9688-3.6836-5.3477-6.3789-6.9883-2.707-1.6406-5.8438-2.5273-9.0312-2.5273-2.0938 0-4.1914 0.37891-6.1992 1.1914 0.085937 0.39062 0.13672 0.77734 0.13672 1.1914 0 2.7383-2.043 5.0117-4.6836 5.3672zm-17.738-6.3672c0-0.62109 0.50391-1.125 1.125-1.125s1.125 0.50391 1.125 1.125v1.9883c0 0.62109-0.50391 1.125-1.125 1.125s-1.125-0.50391-1.125-1.125zm4.1602 0c0-0.62109 0.50391-1.125 1.125-1.125s1.125 0.50391 1.125 1.125v1.9883c0 0.62109-0.50391 1.125-1.125 1.125s-1.125-0.50391-1.125-1.125zm4.1562 0c0-0.62109 0.50391-1.125 1.125-1.125s1.125 0.50391 1.125 1.125v1.9883c0 0.62109-0.50391 1.125-1.125 1.125s-1.125-0.50391-1.125-1.125zm-8.3164 16.652c0-0.62109 0.50391-1.125 1.125-1.125s1.125 0.50391 1.125 1.125v1.9883c0 0.62109-0.50391 1.125-1.125 1.125s-1.125-0.50391-1.125-1.125zm4.1602 0c0-0.62109 0.50391-1.125 1.125-1.125s1.125 0.50391 1.125 1.125v1.9883c0 0.62109-0.50391 1.125-1.125 1.125s-1.125-0.50391-1.125-1.125zm4.1562 0c0-0.62109 0.50391-1.125 1.125-1.125s1.125 0.50391 1.125 1.125v1.9883c0 0.62109-0.50391 1.125-1.125 1.125s-1.125-0.50391-1.125-1.125zm13.031-18.887c-0.15625-0.21094-0.33594-0.42188-0.52734-0.60156-0.98047-0.98047-2.3359-1.5898-3.832-1.5898h-23.441c-0.35938 0-0.70703 0.03125-1.043 0.10547-1.1562-1.4961-2.6328-2.7266-4.3164-3.6094-0.0625-0.03125-0.125-0.0625-0.19141-0.09375 1.4531-4.1055 4.125-7.6406 7.5781-10.18 3.5703-2.6211 7.9805-4.168 12.746-4.168 5.6719 0 10.844 2.1914 14.695 5.7773 3.5898 3.3477 6.0312 7.8945 6.6836 13.012-0.41016-0.019531-0.82031-0.042969-1.2305-0.042969-2.3984 0-4.8203 0.45312-7.1367 1.4102z" fill-rule="evenodd"/>
<text x="0.0" y="117.5" font-size="5.0" font-weight="bold" font-family="Arbeit Regular, Helvetica, Arial-Unicode, Arial, Sans-serif" fill="#000000">Created by firufiati98</text><text x="0.0" y="122.5" font-size="5.0" font-weight="bold" font-family="Arbeit Regular, Helvetica, Arial-Unicode, Arial, Sans-serif" fill="#000000">from Noun Project</text></svg>